<svg xmlns="http://www.w3.org/2000/svg" xmlns:xlink="http://www.w3.org/1999/xlink" xmlns:fi="http://pattern.flaticon.com/" x="0" y="0" width="350" height="350" viewBox="0 0 350 350"><rect x="0px" y="0px" width="100%" height="100%" opacity="1" fill="#ffffff"/><defs><g transform="matrix(0.12765957415103912 0 0 0.12765957415103912 137 281)" id="L1_4"><path d="M128.762,44.977h-22.5L106.239,395h257.523V44.999l-205.001-0.022c-4.14,0-7.496-3.355-7.499-7.495   l-15-0.001C136.26,41.621,132.903,44.977,128.762,44.977z M235.012,370h-96.25c-4.142,0-7.5-3.358-7.5-7.5s3.358-7.5,7.5-7.5h96.25   c4.143,0,7.5,3.358,7.5,7.5S239.155,370,235.012,370z M331.262,334.372h-192.5c-4.142,0-7.5-3.358-7.5-7.5s3.358-7.5,7.5-7.5h192.5   c4.143,0,7.5,3.358,7.5,7.5S335.405,334.372,331.262,334.372z M331.262,298.744h-192.5c-4.142,0-7.5-3.358-7.5-7.5   s3.358-7.5,7.5-7.5h192.5c4.143,0,7.5,3.358,7.5,7.5S335.405,298.744,331.262,298.744z M331.262,263.116h-192.5   c-4.142,0-7.5-3.358-7.5-7.5s3.358-7.5,7.5-7.5h192.5c4.143,0,7.5,3.358,7.5,7.5S335.405,263.116,331.262,263.116z    M331.262,227.488h-192.5c-4.142,0-7.5-3.358-7.5-7.5s3.358-7.5,7.5-7.5h192.5c4.143,0,7.5,3.358,7.5,7.5   S335.405,227.488,331.262,227.488z M331.262,191.86h-192.5c-4.142,0-7.5-3.358-7.5-7.5s3.358-7.5,7.5-7.5h192.5   c4.143,0,7.5,3.358,7.5,7.5S335.405,191.86,331.262,191.86z M131.262,148.732c0-4.142,3.358-7.5,7.5-7.5h96.25   c4.143,0,7.5,3.358,7.5,7.5s-3.357,7.5-7.5,7.5h-96.25C134.62,156.232,131.262,152.875,131.262,148.732z M331.262,120.604h-192.5   c-4.142,0-7.5-3.358-7.5-7.5s3.358-7.5,7.5-7.5h192.5c4.143,0,7.5,3.358,7.5,7.5S335.405,120.604,331.262,120.604z M331.262,69.977   c4.143,0,7.5,3.358,7.5,7.5s-3.357,7.5-7.5,7.5h-192.5c-4.142,0-7.5-3.358-7.5-7.5s3.358-7.5,7.5-7.5H331.262z" fill="#ffffff"/><path d="M371.25,15H98.75c-12.407,0-22.5,10.093-22.5,22.5v395c0,12.407,10.093,22.5,22.5,22.5h272.5   c12.406,0,22.5-10.093,22.5-22.5v-395C393.75,25.093,383.656,15,371.25,15z M250,440h-30c-4.142,0-7.5-3.358-7.5-7.5   s3.358-7.5,7.5-7.5h30c4.143,0,7.5,3.358,7.5,7.5S254.143,440,250,440z M378.762,402.5c0,4.142-3.357,7.5-7.5,7.5H98.738   c-1.989,0-3.897-0.79-5.304-2.197c-1.406-1.407-2.196-3.314-2.196-5.304l0.024-365.023c0-4.142,3.358-7.5,7.5-7.5h30   c4.142,0,7.5,3.358,7.5,7.5c0,0.004,15,0.005,15,0.005c0-4.148,3.358-7.505,7.5-7.505c0.001,0,212.501,0.023,212.501,0.023   c4.142,0,7.499,3.358,7.499,7.5V402.5z" fill="#185f8d"/><path d="M371.25,0H98.75c-20.678,0-37.5,16.822-37.5,37.5v395c0,20.678,16.822,37.5,37.5,37.5h272.5   c20.678,0,37.5-16.822,37.5-37.5v-395C408.75,16.822,391.928,0,371.25,0z M393.75,432.5c0,12.407-10.094,22.5-22.5,22.5H98.75   c-12.407,0-22.5-10.093-22.5-22.5v-395c0-12.407,10.093-22.5,22.5-22.5h272.5c12.406,0,22.5,10.093,22.5,22.5V432.5z" fill="#082947"/><path d="M371.263,30l-212.5-0.023c-4.143,0-7.5,3.357-7.501,7.499c0.003,4.146,3.359,7.5,7.499,7.501   l205.001,0.022V395H106.239l0.023-350.023h22.5c4.141,0,7.498-3.356,7.5-7.496c0-4.146-3.358-7.504-7.5-7.504h-30   c-4.142,0-7.5,3.357-7.5,7.5L91.238,402.5c0,1.989,0.79,3.897,2.196,5.304c1.407,1.407,3.314,2.197,5.304,2.197h272.524   c4.143,0,7.5-3.358,7.5-7.5v-365C378.762,33.358,375.405,30,371.263,30z" fill="#082947"/><path d="M250,425h-30c-4.142,0-7.5,3.358-7.5,7.5s3.358,7.5,7.5,7.5h30c4.143,0,7.5-3.358,7.5-7.5   S254.143,425,250,425z" fill="#082947"/><path d="M131.262,77.477c0,4.142,3.358,7.5,7.5,7.5h192.5c4.143,0,7.5-3.358,7.5-7.5s-3.357-7.5-7.5-7.5   h-192.5C134.62,69.977,131.262,73.334,131.262,77.477z" fill="#082947"/><path d="M331.262,105.604h-192.5c-4.142,0-7.5,3.358-7.5,7.5s3.358,7.5,7.5,7.5h192.5   c4.143,0,7.5-3.358,7.5-7.5S335.405,105.604,331.262,105.604z" fill="#082947"/><path d="M138.762,156.232h96.25c4.143,0,7.5-3.358,7.5-7.5s-3.357-7.5-7.5-7.5h-96.25   c-4.142,0-7.5,3.358-7.5,7.5S134.62,156.232,138.762,156.232z" fill="#082947"/><path d="M331.262,176.86h-192.5c-4.142,0-7.5,3.358-7.5,7.5s3.358,7.5,7.5,7.5h192.5   c4.143,0,7.5-3.358,7.5-7.5S335.405,176.86,331.262,176.86z" fill="#082947"/><path d="M331.262,212.488h-192.5c-4.142,0-7.5,3.358-7.5,7.5s3.358,7.5,7.5,7.5h192.5   c4.143,0,7.5-3.358,7.5-7.5S335.405,212.488,331.262,212.488z" fill="#082947"/><path d="M331.262,248.116h-192.5c-4.142,0-7.5,3.358-7.5,7.5s3.358,7.5,7.5,7.5h192.5   c4.143,0,7.5-3.358,7.5-7.5S335.405,248.116,331.262,248.116z" fill="#082947"/><path d="M331.262,283.744h-192.5c-4.142,0-7.5,3.358-7.5,7.5s3.358,7.5,7.5,7.5h192.5   c4.143,0,7.5-3.358,7.5-7.5S335.405,283.744,331.262,283.744z" fill="#082947"/><path d="M331.262,319.372h-192.5c-4.142,0-7.5,3.358-7.5,7.5s3.358,7.5,7.5,7.5h192.5   c4.143,0,7.5-3.358,7.5-7.5S335.405,319.372,331.262,319.372z" fill="#082947"/><path d="M235.012,355h-96.25c-4.142,0-7.5,3.358-7.5,7.5s3.358,7.5,7.5,7.5h96.25c4.143,0,7.5-3.358,7.5-7.5   S239.155,355,235.012,355z" fill="#082947"/></g><g transform="matrix(0.1931396722793579 0 0 0.1931396722793579 137 158)" id="L1_5"><path d="M177.68,281.323l14.68-48.52l-65.68-61.88l-68.44,123.56l-33.48-33.48l44-144.84l-54.04-50.76  L14,64.683c-6.456-6.484-10.032-15.292-9.92-24.44c0.012-9.18,3.532-18.008,9.84-24.68l1.32-1.32c6.704-6.408,15.608-10,24.88-10.04  c9.16-0.108,17.98,3.464,24.48,9.92l0.72,0.72L116,68.603l144.96-44l33.48,33.48l-123.64,68.68l61.84,65.64l48.64-14.72l26.56,26.56  l-56.32,31.08l-10.8,5.28l-5.44,10.72l-31.2,56.36L177.68,281.323z" fill="#73ddcd"/><path d="M11.6,67.643l52.4,49.4l-42.96,141.96c-0.688,2.08-0.148,4.368,1.4,5.92c0,0,31.4,31.28,32,31.56  c2.756,1.636,6.312,0.724,7.948-2.028c0.016-0.028,0.036-0.06,0.052-0.092l0,0l64.84-117.64l61,57.44l-13.68,45.16  c-0.68,2.08-0.14,4.364,1.4,5.92c0,0,24.44,24.32,24.92,24.6c2.756,1.636,6.312,0.724,7.948-2.028  c0.016-0.028,0.036-0.06,0.052-0.092l0,0l34.76-64c0,0,64.68-35.2,65.2-35.72c2.264-2.264,2.264-5.936,0-8.2l0,0l-23.64-23.64  c-1.516-1.632-3.832-2.256-5.96-1.6l-45.36,13.88l-57.4-60.92c0,0,118.36-65.6,118.76-66.12c2.264-2.264,2.264-5.936,0-8.2l0,0  l-30.6-30.6c-1.484-1.428-3.616-1.96-5.6-1.4L116.8,64.163l-49.52-52.36v-0.48l-0.32-0.36C59.752,3.827,49.984-0.121,39.84,0.003  C29.716,0.039,19.98,3.911,12.6,10.843l-1.68,1.68c-6.932,7.38-10.804,17.116-10.84,27.24c-0.124,10.144,3.824,19.912,10.96,27.12  L11.6,67.643z M19.28,20.483l1.16-1.16c5.232-4.924,12.136-7.684,19.32-7.72c7.004-0.016,13.728,2.764,18.68,7.72l0.28,0.24  l0.28,0.28l52,55c1.508,1.62,3.804,2.24,5.92,1.6l0,0l142.36-43.16l22.68,22.68l-117.6,65.04c-2.832,1.5-3.908,5.012-2.408,7.84  c0.028,0.052,0.056,0.108,0.088,0.16l0,0c0.32,0.44,65.92,70.32,65.92,70.32c1.508,1.62,3.804,2.24,5.92,1.6l0,0l45.4-13.96l16,15.6  l-58.4,31.64c-1.148,0.564-2.076,1.492-2.64,2.64l-31.8,58.48l-15.72-15.72l13.76-45.48c0.676-2.244-0.068-4.676-1.88-6.16  l-68.72-64.64c-2.304-2.068-5.824-1.96-8,0.24l0,0c-0.4,0.44-65.84,118.44-65.84,118.44l-22.88-22.68l43-142.36  c0.692-2.256-0.048-4.708-1.88-6.2l-54.76-51.44l-0.24-0.68c-4.952-5.008-7.692-11.796-7.6-18.84  C11.684,32.635,14.4,25.735,19.28,20.483z" fill="#2b1b19"/></g><g transform="matrix(0.16726137697696686 0 0 0.16726137697696686 258 233.99999989791172)" id="L1_6"><rect x="89px" y="87px" width="179px" height="215px" fill="#ffd04d"/><rect x="54px" y="87px" width="30px" height="88px" fill="#7a5e47"/><rect x="54px" y="179px" width="30px" height="32px" fill="#ffffff"/><rect x="54px" y="215px" width="30px" height="88px" fill="#7a5e47"/><g><path d="M28.92,303.34c-11.376,0-20.6-9.224-20.6-20.6l0,0V108.38c0-11.376,9.224-20.6,20.6-20.6l0,0h22.44   v215.56H28.92z" fill="#ffd04d"/><path d="M307.36,303.34V87.78h22.32c11.376,0,20.6,9.224,20.6,20.6l0,0v174.48   c-0.064,11.284-9.196,20.416-20.48,20.48L307.36,303.34L307.36,303.34z" fill="#ffd04d"/></g><rect x="272px" y="87px" width="30px" height="88px" fill="#7a5e47"/><rect x="272px" y="179px" width="30px" height="32px" fill="#ffffff"/><rect x="272px" y="215px" width="30px" height="88px" fill="#7a5e47"/><path d="M28.28,311.54h302.16c15.568-0.044,28.192-12.632,28.28-28.2V108.06  c-0.044-15.6-12.68-28.236-28.28-28.28h-85.12V65.14c0.004-4.804-1.912-9.412-5.32-12.8l0,0c-3.36-3.34-7.904-5.22-12.64-5.24h-96  c-4.616,0.004-9.056,1.776-12.4,4.96l-0.36,0.36c-3.408,3.388-5.324,7.996-5.32,12.8v14.6h-85C12.68,79.864,0.044,92.5,0,108.1  v175.24c0.044,15.6,12.68,28.236,28.28,28.28V311.54z M312.04,91.34h18.4c9.172,0.044,16.596,7.468,16.64,16.64v175.36  c-0.044,9.172-7.468,16.596-16.64,16.64h-18.4V91.34z M277.36,91.34h23.04v80.6h-23.04V91.34z M277.36,183.34h23.04v24h-23.04  V183.34z M277.36,219.34h23.04v80.6h-23.04V219.34z M125.04,65.14c0.008-1.716,0.7-3.356,1.92-4.56l0,0  c1.172-1.168,2.748-1.84,4.4-1.88h96c1.708-0.004,3.348,0.672,4.56,1.88l0,0c1.22,1.204,1.912,2.844,1.92,4.56v14.6h-108.8  L125.04,65.14L125.04,65.14z M93.04,91.38h172.68v208.56H93L93.04,91.38z M58.36,91.38h23v80.56H58.32L58.36,91.38z M58.36,183.38  h23v24H58.32L58.36,183.38z M58.36,219.38h23v80.56H58.32L58.36,219.38z M11.64,108.06c0-9.204,7.436-16.676,16.64-16.72h18.4v208.6  h-18.4c-9.156-0.044-16.576-7.444-16.64-16.6V108.06z" fill="#2b1b19"/></g><g transform="matrix(0.15234613418579102 0 0 0.15234613418579102 -27 318.0000002789541)" id="L1_7"><path d="M31.24,310.08c-14.804-0.044-26.796-12.036-26.84-26.84V145.88h39.68  c12.376-0.044,22.396-10.064,22.44-22.44V83.76h296c14.804,0.044,26.796,12.036,26.84,26.84v172.6  c-0.044,14.804-12.036,26.796-26.84,26.84L31.24,310.08z" fill="#f6d4a4"/><path d="M119.36,255.68l-3.68-1.24l-4,1.36l-24.84,7.12v-16.76l16.76-9l-0.92-31.2l-51.04,14.68v-20.48  l50.08-26.8l-0.8-27.36c0.032-3.784,1.572-7.396,4.28-10.04c2.688-2.668,6.292-4.212,10.08-4.32h0.64  c3.872,0.076,7.568,1.636,10.32,4.36c0.652,0.648,1.24,1.36,1.76,2.12h2.48v8.4l-0.8,26.84l50.04,26.8v20.44l-50.8-14.6L128,237.2  l16.72,8.96v16.76L119.36,255.68z" fill="#ffffff"/><path d="M1.28,150.32l69.64-69.64v42.8c-0.044,14.804-12.036,26.796-26.84,26.84H1.28z" fill="#e2ba8a"/><g><path d="M179.76,196.2l-46.84-25l0.76-25.32c-0.02-4.772-1.948-9.34-5.36-12.68   c-3.352-3.324-7.84-5.252-12.56-5.4h-1.08c-4.72,0.148-9.208,2.076-12.56,5.4c-3.356,3.364-5.228,7.928-5.2,12.68l0,0l0.76,25.24   l-47.16,25.32c-1.896,1.004-3.08,2.976-3.08,5.12l0,0v16.24c0.012,3.224,2.636,5.828,5.864,5.816   c0.616-0.004,1.232-0.104,1.816-0.296l43.72-12.56l0.72,24.52l-13.72,7.36c-1.896,1.004-3.08,2.976-3.08,5.12l0,0v12.56   c0.012,3.224,2.636,5.828,5.864,5.816c0.616-0.004,1.232-0.104,1.816-0.296l24.92-7.32l25.2,7.4c3.108,0.86,6.328-0.96,7.188-4.068   c0.14-0.5,0.208-1.016,0.212-1.532l0,0v-12.6c-0.008-2.34-1.408-4.448-3.56-5.36l-13.24-7.08l0.72-24.52l44,12.6   c3.108,0.86,6.328-0.96,7.188-4.068c0.14-0.5,0.208-1.016,0.212-1.532l0,0v-16.2C183.28,199.232,181.896,197.124,179.76,196.2z    M171.76,210.08c0,0-44.76-12.76-45.24-12.76c-3.2-0.088-5.872,2.432-5.96,5.636v0.004l0,0l-1.04,35.56l0,0   c-0.06,2.204,1.132,4.248,3.08,5.28l13.76,7.36v1.36l-19.12-5.72l0,0c-1.204-0.412-2.516-0.412-3.72,0l-19.12,5.72v-1.36   l13.64-7.32c2.036-1,3.3-3.092,3.24-5.36c0,0-1.08-36.4-1.24-37c-0.872-3.08-4.08-4.872-7.16-4l0,0l-43.8,12.6v-5.16l47.08-25.2   c2.036-1,3.3-3.092,3.24-5.36l-0.84-28.6c0.036-1.664,0.728-3.244,1.92-4.4c1.256-1.256,2.944-1.984,4.72-2.04h0.44   c1.776,0.056,3.464,0.784,4.72,2.04c1.208,1.164,1.9,2.764,1.92,4.44l-0.84,28.56l0,0c-0.06,2.204,1.132,4.248,3.08,5.28   l47.16,25.28L171.76,210.08z" fill="#2b1b19"/><path d="M298.6,246.76h-76c-3.216,0.268-5.604,3.088-5.336,6.304c0.236,2.844,2.492,5.1,5.336,5.336h76   c3.216-0.268,5.604-3.088,5.336-6.304C303.7,249.252,301.444,246.996,298.6,246.76z" fill="#2b1b19"/><path d="M222.72,184.2h76c3.212,0.296,6.056-2.072,6.348-5.284c0.296-3.212-2.072-6.056-5.284-6.348   c-0.036-0.004-0.072-0.008-0.104-0.008h-76.96c-3.212-0.296-6.056,2.072-6.348,5.284c-0.296,3.212,2.072,6.056,5.284,6.348   c0.036,0.004,0.072,0.008,0.104,0.008H222.72z" fill="#2b1b19"/><path d="M363.28,79.72H68.16c-0.88,0.048-1.748,0.252-2.56,0.6c-0.564,0.34-1.1,0.728-1.6,1.16L1.76,143.72   l-0.72,0.88l-0.36,0.6c-0.44,0.824-0.672,1.744-0.68,2.68v135.68c0.044,16.86,13.7,30.516,30.56,30.56h332.72   c16.86-0.044,30.516-13.7,30.56-30.56V110.28C393.796,93.42,380.14,79.764,363.28,79.72z M62.36,99.72v23.56   c-0.044,10.432-8.488,18.876-18.92,18.92h-23.6L62.36,99.72z M382.36,283.72c-0.044,10.432-8.488,18.876-18.92,18.92H30.56   c-10.432-0.044-18.876-8.488-18.92-18.92v-130h32c16.86-0.044,30.516-13.7,30.56-30.56v-32h289.28   c10.432,0.044,18.876,8.488,18.92,18.92L382.36,283.72z" fill="#2b1b19"/><path d="M340.6,209.64H222.72c-3.216-0.236-6.016,2.18-6.252,5.396c-0.232,3.176,2.12,5.952,5.292,6.244   H340.6c3.216-0.268,5.604-3.088,5.336-6.304C345.7,212.132,343.444,209.876,340.6,209.64z" fill="#2b1b19"/><path d="M340.6,135.44H222.72c-3.216,0.268-5.604,3.088-5.336,6.304c0.236,2.844,2.492,5.1,5.336,5.336   H340.6c3.216-0.268,5.604-3.088,5.336-6.304C345.7,137.932,343.444,135.676,340.6,135.44z" fill="#2b1b19"/></g></g><g transform="matrix(0.1171875 0 0 0.1171875 211 138)" id="L1_8"><path d="M418.487,499.599l53.732-53.732l-84.706-255.961L496.808,85.021  c19.967-19.162,20.295-50.988,0.726-70.556l0,0c-19.568-19.568-51.395-19.241-70.556,0.726L322.092,124.487L66.131,39.78  L12.4,93.512l213.352,131.365L117.796,337.371l-69.231-11.366L0,374.57l101.78,35.649l35.649,101.78l48.565-48.565l-11.366-69.231  l112.494-107.955L418.487,499.599z" fill="#e6e6e6"/><path d="M418.487,499.599l53.732-53.732l-84.706-255.961L496.808,85.021  c19.967-19.162,20.295-50.988,0.726-70.556l0,0L101.78,410.219l35.649,101.78l48.565-48.565l-11.366-69.231l112.494-107.955  L418.487,499.599z" fill="#cccccc"/></g><g transform="matrix(0.1171875 0 0 0.1171875 84 10)" id="L1_9"><path d="M256,15.665c-89.607,0-162.508,72.901-162.508,162.508v155.653  c0,89.607,72.901,162.508,162.508,162.508s162.508-72.901,162.508-162.508V178.173C418.508,88.566,345.607,15.665,256,15.665z" fill="#bee8ff"/><path d="M256,15.665c0,73.64,0,437.469,0,480.67c89.607,0,162.508-72.901,162.508-162.508V178.173  C418.508,88.566,345.607,15.665,256,15.665z" fill="#82d2ff"/><path d="M234.131,267.659c-2.027,0-4.021,0.142-5.974,0.412c-8.746-20.903-29.391-35.59-53.467-35.59  c-28.286,0-51.834,20.273-56.916,47.08c-20.087,0.652-36.172,17.138-36.172,37.384c0,20.659,16.747,37.406,37.406,37.406h115.123  c23.939,0,43.346-19.407,43.346-43.346C277.477,287.065,258.07,267.659,234.131,267.659z" fill="#ffffff"/><path d="M379.745,377.183c-1.284,0-2.546,0.09-3.782,0.261c-5.538-13.234-18.608-22.533-33.852-22.533  c-17.909,0-32.818,12.835-36.036,29.808c-12.718,0.413-22.901,10.851-22.901,23.669c0,13.08,10.603,23.683,23.683,23.683h72.888  c15.157,0,27.444-12.287,27.444-27.444C407.189,389.47,394.902,377.183,379.745,377.183z" fill="#f1f1f2"/><path d="M256,15.665c-92.167,0-167.15,74.983-167.15,167.15h334.3C423.15,90.648,348.167,15.665,256,15.665z" fill="#cccccc"/><path d="M256,15.665c0,39.94,0,74.983,0,167.15h167.15C423.15,90.648,348.167,15.665,256,15.665z" fill="#b3b3b3"/><path d="M256,512c-100.805,0-182.815-82.011-182.815-182.815v-146.37C73.185,82.011,155.195,0,256,0  s182.815,82.011,182.815,182.815v146.369C438.815,429.989,356.805,512,256,512z M256,30c-84.263,0-152.815,68.553-152.815,152.815  v146.369C103.185,413.447,171.737,482,256,482s152.815-68.553,152.815-152.815v-146.37C408.815,98.553,340.263,30,256,30z" fill="#f1f1f2"/><rect x="212px" y="107px" width="86px" height="30px" fill="#999999"/><path d="M256,0v30c84.263,0,152.815,68.553,152.815,152.815v146.369C408.815,413.447,340.263,482,256,482v30  c100.805,0,182.815-82.011,182.815-182.815v-146.37C438.815,82.011,356.805,0,256,0z" fill="#e6e6e6"/><path d="M277.477,311.004c0-15.96-8.632-29.897-21.477-37.42v74.839  C268.844,340.901,277.477,326.965,277.477,311.004z" fill="#f1f1f2"/></g><g transform="matrix(0.1171875 0 0 0.1171875 223 64)" id="L1_10"><g><path d="M329.381,281.766V170.806c0-20.317-16.471-36.788-36.788-36.788h-41.005h-41.006   c-20.317,0-36.788,16.471-36.788,36.788v110.988L329.381,281.766z" fill="#d3effd"/><path d="M262.189,106.617h-21.201c-15.563,0-28.296-12.733-28.296-28.296v-42.43   c0-15.563,12.733-28.296,28.296-28.296h21.201c15.563,0,28.296,12.733,28.296,28.296V78.32   C290.486,93.884,277.752,106.617,262.189,106.617z" fill="#d3effd"/></g><g><path d="M290.486,269.134c-4.196,0-7.596-3.401-7.596-7.596v-71.405c0-4.195,3.4-7.596,7.596-7.596   s7.596,3.401,7.596,7.596v71.405C298.082,265.733,294.682,269.134,290.486,269.134z" fill="#73afd6"/><path d="M212.692,269.134c-4.196,0-7.596-3.401-7.596-7.596v-71.405c0-4.195,3.4-7.596,7.596-7.596   s7.596,3.401,7.596,7.596v71.405C220.288,265.733,216.888,269.134,212.692,269.134z" fill="#73afd6"/></g><g><rect x="164px" y="278px" width="181px" height="226px" fill="#5d5d5d"/><rect x="122px" y="261px" width="258px" height="33px" fill="#5d5d5d"/></g><circle cx="255" cy="367" r="38" fill="#3e3b43"/><path d="M267.372,372.26h-4.643v-8.681h4.643c4.196,0,7.596-3.401,7.596-7.596s-3.4-7.596-7.596-7.596  h-24.477c-4.196,0-7.596,3.401-7.596,7.596s3.4,7.596,7.596,7.596h4.642v8.681h-4.642c-4.196,0-7.596,3.401-7.596,7.596  s3.4,7.596,7.596,7.596h24.477c4.196,0,7.596-3.401,7.596-7.596S271.567,372.26,267.372,372.26z" fill="#ffd578"/><path d="M299.26,470.991h-88.128c-7.328,0-13.324-5.996-13.324-13.324l0,0  c0-7.328,5.996-13.324,13.324-13.324h88.128c7.328,0,13.324,5.996,13.324,13.324l0,0  C312.584,464.995,306.588,470.991,299.26,470.991z" fill="#3e3b43"/><g><path d="M290.486,52.896V35.892c0-15.563-12.733-28.297-28.296-28.297h-21.201   c-6.802,0-13.064,2.433-17.959,6.471C228.394,22.113,250.449,51.13,290.486,52.896z" fill="#73afd6"/><path d="M257.444,206.75h-13.17c-1.262,0-2.284-1.023-2.284-2.284v-61.573c0-0.616,0.249-1.206,0.69-1.636   l6.585-6.415c0.887-0.864,2.301-0.864,3.188,0l6.585,6.415c0.442,0.429,0.69,1.02,0.69,1.636v61.573   C259.728,205.728,258.705,206.75,257.444,206.75z" fill="#73afd6"/></g><g><rect x="82px" y="25px" width="67px" height="93px" fill="#d3effd"/><circle cx="385" cy="71" r="43" fill="#d3effd"/></g><path d="M385.967,96.587c-4.196,0-7.596-3.401-7.596-7.596V71.979c0-1.836,0.664-3.61,1.873-4.993  l12.974-14.872c2.757-3.162,7.556-3.489,10.718-0.731c3.161,2.758,3.488,7.557,0.73,10.718l-11.102,12.726V88.99  C393.564,93.186,390.164,96.587,385.967,96.587z" fill="#73afd6"/><rect x="164px" y="294px" width="181px" height="20px" fill="#3e3b43"/><path d="M240.988,114.213h21.202c19.791,0,35.893-16.101,35.893-35.893V35.892C298.082,16.101,281.98,0,262.189,0h-21.202  c-19.791,0-35.893,16.101-35.893,35.892v42.43C205.095,98.112,221.198,114.213,240.988,114.213z M262.189,99.021h-21.202  c-11.415,0-20.7-9.286-20.7-20.7V35.892c0-4.242,1.286-8.188,3.484-11.474c10.286,10.818,33.308,31.95,59.116,35.612v18.292  C282.889,89.735,273.604,99.021,262.189,99.021z M262.189,15.193c11.415,0,20.7,9.286,20.7,20.699v8.743  c-19.007-3.593-37.043-19.461-46.381-28.941c1.444-0.32,2.94-0.502,4.48-0.502h21.201V15.193z"/><path d="M380.698,253.942h-43.72v-83.135c0-24.474-19.91-44.384-44.383-44.384H251.59h-41.005c-24.474,0-44.384,19.91-44.384,44.384  v83.135h-43.719c-4.196,0-7.596,3.401-7.596,7.596v33.299c0,4.195,3.4,7.596,7.596,7.596h34.664v201.97  c0,4.195,3.4,7.596,7.596,7.596H345.97c4.196,0,7.596-3.401,7.596-7.596v-201.97H380.7c4.196,0,7.596-3.401,7.596-7.596v-33.299  C388.294,257.343,384.894,253.942,380.698,253.942z M250.316,157.403l1.273-1.241l1.273,1.241v42.481h-2.546L250.316,157.403  L250.316,157.403z M181.392,170.806c0-16.097,13.096-29.192,29.192-29.192h34.166l-7.331,7.143c-1.468,1.43-2.296,3.392-2.296,5.441  v53.282c0,4.195,3.4,7.596,7.596,7.596h17.739c4.196,0,7.596-3.401,7.596-7.596v-53.282c0-2.049-0.827-4.011-2.296-5.441  l-7.331-7.143h34.166c16.097,0,29.191,13.095,29.191,29.192v83.135h-23.703v-63.809c0-4.195-3.4-7.596-7.596-7.596  c-4.196,0-7.596,3.401-7.596,7.596v63.809h-62.601v-63.809c0-4.195-3.4-7.596-7.596-7.596s-7.596,3.401-7.596,7.596v63.809h-23.703  v-83.135H181.392z M338.371,496.807H172.337V302.433h166.035L338.371,496.807L338.371,496.807z M373.101,287.241h-27.134H164.741  h-34.664v-18.106h243.025L373.101,287.241L373.101,287.241z"/><path d="M255.133,414.413c25.637,0,46.493-20.856,46.493-46.493c0-25.636-20.857-46.492-46.493-46.492s-46.492,20.856-46.492,46.492  C208.639,393.556,229.496,414.413,255.133,414.413z M255.133,336.62c17.26,0,31.301,14.041,31.301,31.3  c0,17.26-14.041,31.301-31.301,31.301c-17.259,0-31.3-14.041-31.3-31.301C223.832,350.662,237.874,336.62,255.133,336.62z"/><path d="M211.131,478.588h88.129c11.536,0,20.92-9.385,20.92-20.92s-9.385-20.92-20.92-20.92h-88.129  c-11.536,0-20.92,9.385-20.92,20.92S199.596,478.588,211.131,478.588z M211.131,451.939h88.129c3.158,0,5.728,2.57,5.728,5.728  c0,3.158-2.57,5.728-5.728,5.728h-88.129c-3.158,0-5.728-2.57-5.728-5.728C205.403,454.508,207.973,451.939,211.131,451.939z"/><path d="M157.101,118.486V25.471c0-4.195-3.4-7.596-7.596-7.596H82.034c-4.196,0-7.596,3.401-7.596,7.596v93.016  c0,4.195,3.4,7.596,7.596,7.596h67.47C153.7,126.083,157.101,122.682,157.101,118.486z M141.909,110.89H89.63V33.067h52.277v77.823  H141.909z"/><path d="M385.967,20.384c-28.449,0-51.595,23.145-51.595,51.595s23.146,51.595,51.595,51.595s51.595-23.145,51.595-51.595  S414.417,20.384,385.967,20.384z M385.967,108.381c-20.072,0-36.402-16.33-36.402-36.402s16.33-36.402,36.402-36.402  c20.072,0,36.402,16.33,36.402,36.402S406.041,108.381,385.967,108.381z"/><path d="M403.936,51.382c-3.162-2.758-7.961-2.431-10.718,0.731l-12.974,14.872c-1.207,1.384-1.873,3.157-1.873,4.993v17.012  c0,4.195,3.4,7.596,7.596,7.596c4.196,0,7.596-3.401,7.596-7.596V74.826L404.665,62.1C407.424,58.939,407.097,54.14,403.936,51.382z  "/><path d="M105.074,60.583h22.776c4.195,0,7.596-3.401,7.596-7.596s-3.401-7.596-7.596-7.596h-22.776  c-4.196,0-7.596,3.401-7.596,7.596S100.879,60.583,105.074,60.583z"/><path d="M105.074,79.575h22.776c4.195,0,7.596-3.401,7.596-7.596c0-4.195-3.401-7.596-7.596-7.596h-22.776  c-4.196,0-7.596,3.401-7.596,7.596C97.478,76.174,100.879,79.575,105.074,79.575z"/></g><g transform="matrix(0.125 0 0 0.125 32 92)" id="L1_11"><path d="M159.192,176H400.8c3.192-15.656,15.544-28.008,31.192-31.192V79.2  c-15.64-3.192-28-15.544-31.192-31.2H159.192C156.008,63.648,143.648,76,128,79.192V144.8  C143.648,147.992,156.008,160.344,159.192,176z M376,104h16v16h-16V104z M280,64c26.472,0,48,21.528,48,48s-21.528,48-48,48  s-48-21.528-48-48S253.528,64,280,64z M168,104h16v16h-16V104z" fill="#78ba8c"/><path d="M96,208h368V16H96V208z M114.344,66.336C115.84,64.84,117.88,64,120,64c13.232,0,24-10.768,24-24  c0-4.416,3.584-8,8-8h256c4.416,0,8,3.584,8,8c0,13.232,10.768,24,24,24c4.416,0,8,3.584,8,8v80c0,2.12-0.84,4.16-2.344,5.656  S442.12,160,440,160c-13.232,0-24,10.768-24,24c0,4.416-3.584,8-8,8H152c-2.12,0-4.16-0.84-5.656-2.344S144,186.12,144,184  c0-13.232-10.768-24-24-24c-4.416,0-8-3.584-8-8V72C112,69.872,112.84,67.84,114.344,66.336z" fill="#a6e0b5"/><circle cx="280" cy="112" r="32" fill="#ede7a6"/><rect x="112px" y="352px" width="16px" height="112px" fill="#dd6743"/><g><rect x="16px" y="304px" width="80px" height="32px" fill="#a6e0b5"/><path d="M144,464h80V352h-80V464z M192,368h16v16h-16V368z M192,400h16v16h-16V400z M192,432h16v16h-16V432z    M160,368h16v16h-16V368z M160,400h16v16h-16V400z M160,432h16v16h-16V432z" fill="#a6e0b5"/><rect x="144px" y="304px" width="80px" height="32px" fill="#a6e0b5"/></g><path d="M112,336 128,336 128,304 120,304 112,304z" fill="#dd6743"/><path d="M96,352H16v112h80V352z M48,448H32v-16h16V448z M48,416H32v-16h16V416z M48,384H32v-16h16V384z   M80,448H64v-16h16V448z M80,416H64v-16h16V416z M80,384H64v-16h16V384z" fill="#a6e0b5"/><g><path d="M472,0H88c-4.416,0-8,3.584-8,8v208c0,4.416,3.584,8,8,8h384c4.416,0,8-3.584,8-8V8   C480,3.584,476.416,0,472,0z M464,208H96V16h368V208z" fill="#42342a"/><path d="M120,160c13.232,0,24,10.768,24,24c0,2.12,0.84,4.16,2.344,5.656S149.88,192,152,192h256   c4.416,0,8-3.584,8-8c0-13.232,10.768-24,24-24c2.12,0,4.16-0.84,5.656-2.344S448,154.12,448,152l-0.008-80c0-4.416-3.584-8-8-8   C426.76,64,416,53.232,416,40c0-4.416-3.584-8-8-8H152c-4.416,0-8,3.584-8,8c0,13.232-10.768,24-24,24   c-2.12,0-4.16,0.84-5.656,2.344S112,69.872,112,72v80C112,156.416,115.584,160,120,160z M128,79.192   C143.648,76,156.816,63.648,160,48h240c3.192,15.648,16.352,28.816,32,32v64c-15.648,3.184-28.008,16.344-31.2,32H160   c-3.184-15.648-16.352-28.008-32-31.2V79.192z" fill="#42342a"/><path d="M280,160c26.472,0,48-21.528,48-48s-21.528-48-48-48s-48,21.528-48,48S253.528,160,280,160z M280,80   c17.648,0,32,14.352,32,32s-14.352,32-32,32s-32-14.352-32-32S262.352,80,280,80z" fill="#42342a"/><rect x="48px" y="96px" width="16px" height="16px" fill="#42342a"/><rect x="16px" y="96px" width="16px" height="16px" fill="#42342a"/><rect x="16px" y="128px" width="16px" height="16px" fill="#42342a"/><rect x="16px" y="160px" width="16px" height="16px" fill="#42342a"/><rect x="16px" y="192px" width="16px" height="16px" fill="#42342a"/><rect x="16px" y="224px" width="16px" height="16px" fill="#42342a"/><rect x="16px" y="256px" width="16px" height="16px" fill="#42342a"/><rect x="448px" y="272px" width="16px" height="16px" fill="#42342a"/><rect x="448px" y="240px" width="16px" height="16px" fill="#42342a"/><rect x="448px" y="304px" width="16px" height="16px" fill="#42342a"/><rect x="448px" y="336px" width="16px" height="16px" fill="#42342a"/><rect x="448px" y="368px" width="16px" height="16px" fill="#42342a"/><rect x="448px" y="400px" width="16px" height="16px" fill="#42342a"/><rect x="416px" y="400px" width="16px" height="16px" fill="#42342a"/><rect x="384px" y="400px" width="16px" height="16px" fill="#42342a"/><rect x="352px" y="400px" width="16px" height="16px" fill="#42342a"/><rect x="320px" y="400px" width="16px" height="16px" fill="#42342a"/><rect x="288px" y="400px" width="16px" height="16px" fill="#42342a"/><rect x="256px" y="400px" width="16px" height="16px" fill="#42342a"/><rect x="168px" y="104px" width="16px" height="16px" fill="#42342a"/><rect x="376px" y="104px" width="16px" height="16px" fill="#42342a"/><path d="M232,288h-60.448c2.752-4.728,4.448-10.144,4.448-16c0-17.648-14.352-32-32-32   c-9.6,0-18.128,4.336-24,11.056C114.128,244.336,105.6,240,96,240c-17.648,0-32,14.352-32,32c0,5.856,1.696,11.272,4.448,16H8   c-4.416,0-8,3.584-8,8v48v128c0,4.416,3.584,8,8,8h96h32h96c4.416,0,8-3.584,8-8V344v-48C240,291.584,236.416,288,232,288z    M224,336h-80v-32h80V336z M120,304h8v32h-16v-32H120z M144,256c8.824,0,16,7.176,16,16s-7.176,16-16,16h-8h-8v-16   C128,263.176,135.176,256,144,256z M80,272c0-8.824,7.176-16,16-16s16,7.176,16,16v16h-8h-8C87.176,288,80,280.824,80,272z M16,304   h80v32H16V304z M16,352h80v112H16V352z M112,464V352h16v112H112z M224,464h-80V352h80V464z" fill="#42342a"/><rect x="160px" y="368px" width="16px" height="16px" fill="#42342a"/><rect x="192px" y="368px" width="16px" height="16px" fill="#42342a"/><rect x="160px" y="400px" width="16px" height="16px" fill="#42342a"/><rect x="192px" y="400px" width="16px" height="16px" fill="#42342a"/><rect x="160px" y="432px" width="16px" height="16px" fill="#42342a"/><rect x="192px" y="432px" width="16px" height="16px" fill="#42342a"/><rect x="32px" y="368px" width="16px" height="16px" fill="#42342a"/><rect x="64px" y="368px" width="16px" height="16px" fill="#42342a"/><rect x="32px" y="400px" width="16px" height="16px" fill="#42342a"/><rect x="64px" y="400px" width="16px" height="16px" fill="#42342a"/><rect x="32px" y="432px" width="16px" height="16px" fill="#42342a"/><rect x="64px" y="432px" width="16px" height="16px" fill="#42342a"/></g></g><g transform="matrix(0.125 0 0 0.125 16 201)" id="L1_12"><g><path d="M296,224V70.992c-11.224-2.904-20.088-11.76-22.984-22.992h-66.032   c-2.896,11.232-11.76,20.088-22.984,22.992V224h24.208c-5.08-6.704-8.208-14.96-8.208-24c0-22.056,17.944-40,40-40s40,17.944,40,40   c0,9.04-3.128,17.296-8.208,24H296z" fill="#78ba8c"/><path d="M360,208c0-8.824-7.176-16-16-16v32C352.824,224,360,216.824,360,208z" fill="#78ba8c"/></g><path d="M168,64c0-4.416,3.576-8,8-8c8.824,0,16-7.176,16-16c0-4.416,3.576-8,8-8h80c4.424,0,8,3.584,8,8  c0,8.824,7.176,16,16,16c4.424,0,8,3.584,8,8v160h16V16H152v208h16V64z" fill="#a6e0b5"/><circle cx="240" cy="200" r="24" fill="#ede7a6"/><path d="M136,224v-32c-8.824,0-16,7.176-16,16S127.176,224,136,224z" fill="#78ba8c"/><path d="M104,208c0-17.648,14.352-32,32-32v-16H72v232h336V160h-64v16c17.648,0,32,14.352,32,32  s-14.352,32-32,32h-8H144h-8C118.352,240,104,225.648,104,208z M296,256h16v16h-16V256z M264,256h16v16h-16V256z M264,288h16v16h-16  V288z M232,256h16v16h-16V256z M232,288h16v16h-16V288z M232,320h16v16h-16V320z M200,256h16v16h-16V256z M200,288h16v16h-16V288z   M168,256h16v16h-16V256z" fill="#ede7a6"/><g><path d="M440,152c0-13.232-10.768-24-24-24h-72v16h72c4.424,0,8,3.584,8,8v248c0,4.416-3.576,8-8,8H64   c-4.424,0-8-3.584-8-8V152c0-4.416,3.576-8,8-8h72v-16H64c-13.232,0-24,10.768-24,24v272h400V152z" fill="#a6e0b5"/><path d="M32,440H16c0,13.232,10.768,24,24,24h400c13.232,0,24-10.768,24-24h-16H32z" fill="#a6e0b5"/></g><g><path d="M472,424h-16V152c0-22.056-17.944-40-40-40h-72V8c0-4.416-3.576-8-8-8H144c-4.424,0-8,3.584-8,8v104   H64c-22.056,0-40,17.944-40,40v272H8c-4.424,0-8,3.584-8,8v8c0,22.056,17.944,40,40,40h400c22.056,0,40-17.944,40-40v-8   C480,427.584,476.424,424,472,424z M120,208c0-8.824,7.176-16,16-16v32C127.176,224,120,216.824,120,208z M136,176   c-17.648,0-32,14.352-32,32s14.352,32,32,32h8h192h8c17.648,0,32-14.352,32-32s-14.352-32-32-32v-16h64v232H72V160h64V176z    M296,224h-24.208c5.08-6.704,8.208-14.96,8.208-24c0-22.056-17.944-40-40-40s-40,17.944-40,40c0,9.04,3.128,17.296,8.208,24H184   V70.992c11.224-2.904,20.088-11.76,22.984-22.992h66.032c2.896,11.232,11.76,20.088,22.984,22.992V224z M216,200   c0-13.232,10.768-24,24-24s24,10.768,24,24s-10.768,24-24,24S216,213.232,216,200z M344,192c8.824,0,16,7.176,16,16   s-7.176,16-16,16V192z M152,16h176v208h-16V64c0-4.416-3.576-8-8-8c-8.824,0-16-7.176-16-16c0-4.416-3.576-8-8-8h-80   c-4.424,0-8,3.584-8,8c0,8.824-7.176,16-16,16c-4.424,0-8,3.584-8,8v160h-16V16z M40,152c0-13.232,10.768-24,24-24h72v16H64   c-4.424,0-8,3.584-8,8v248c0,4.416,3.576,8,8,8h352c4.424,0,8-3.584,8-8V152c0-4.416-3.576-8-8-8h-72v-16h72   c13.232,0,24,10.768,24,24v272H40V152z M440,464H40c-13.232,0-24-10.768-24-24h16h416h16C464,453.232,453.232,464,440,464z" fill="#42342a"/><rect x="200px" y="288px" width="16px" height="16px" fill="#42342a"/><rect x="200px" y="256px" width="16px" height="16px" fill="#42342a"/><rect x="168px" y="256px" width="16px" height="16px" fill="#42342a"/><rect x="232px" y="256px" width="16px" height="16px" fill="#42342a"/><rect x="264px" y="256px" width="16px" height="16px" fill="#42342a"/><rect x="296px" y="256px" width="16px" height="16px" fill="#42342a"/><rect x="232px" y="288px" width="16px" height="16px" fill="#42342a"/><rect x="232px" y="320px" width="16px" height="16px" fill="#42342a"/><rect x="264px" y="288px" width="16px" height="16px" fill="#42342a"/></g></g></defs><g fi:class="KUsePattern"><pattern id="pattern_L1_4" width="350" height="350" patternUnits="userSpaceOnUse"><use xlink:href="#L1_4" x="-350" y="-350"/><use xlink:href="#L1_4" x="0" y="-350"/><use xlink:href="#L1_4" x="350" y="-350"/><use xlink:href="#L1_4" x="-350" y="0"/><use xlink:href="#L1_4" x="0" y="0"/><use xlink:href="#L1_4" x="350" y="0"/><use xlink:href="#L1_4" x="-350" y="350"/><use xlink:href="#L1_4" x="0" y="350"/><use xlink:href="#L1_4" x="350" y="350"/></pattern><rect x="0" y="0" width="100%" height="100%" fill="url(#pattern_L1_4)"/></g><g fi:class="KUsePattern"><pattern id="pattern_L1_5" width="350" height="350" patternUnits="userSpaceOnUse"><use xlink:href="#L1_5" x="-350" y="-350"/><use xlink:href="#L1_5" x="0" y="-350"/><use xlink:href="#L1_5" x="350" y="-350"/><use xlink:href="#L1_5" x="-350" y="0"/><use xlink:href="#L1_5" x="0" y="0"/><use xlink:href="#L1_5" x="350" y="0"/><use xlink:href="#L1_5" x="-350" y="350"/><use xlink:href="#L1_5" x="0" y="350"/><use xlink:href="#L1_5" x="350" y="350"/></pattern><rect x="0" y="0" width="100%" height="100%" fill="url(#pattern_L1_5)"/></g><g fi:class="KUsePattern"><pattern id="pattern_L1_6" width="350" height="350" patternUnits="userSpaceOnUse"><use xlink:href="#L1_6" x="-350" y="-350"/><use xlink:href="#L1_6" x="0" y="-350"/><use xlink:href="#L1_6" x="350" y="-350"/><use xlink:href="#L1_6" x="-350" y="0"/><use xlink:href="#L1_6" x="0" y="0"/><use xlink:href="#L1_6" x="350" y="0"/><use xlink:href="#L1_6" x="-350" y="350"/><use xlink:href="#L1_6" x="0" y="350"/><use xlink:href="#L1_6" x="350" y="350"/></pattern><rect x="0" y="0" width="100%" height="100%" fill="url(#pattern_L1_6)"/></g><g fi:class="KUsePattern"><pattern id="pattern_L1_7" width="350" height="350" patternUnits="userSpaceOnUse"><use xlink:href="#L1_7" x="-350" y="-350"/><use xlink:href="#L1_7" x="0" y="-350"/><use xlink:href="#L1_7" x="350" y="-350"/><use xlink:href="#L1_7" x="-350" y="0"/><use xlink:href="#L1_7" x="0" y="0"/><use xlink:href="#L1_7" x="350" y="0"/><use xlink:href="#L1_7" x="-350" y="350"/><use xlink:href="#L1_7" x="0" y="350"/><use xlink:href="#L1_7" x="350" y="350"/></pattern><rect x="0" y="0" width="100%" height="100%" fill="url(#pattern_L1_7)"/></g><g fi:class="KUsePattern"><pattern id="pattern_L1_8" width="350" height="350" patternUnits="userSpaceOnUse"><use xlink:href="#L1_8" x="-350" y="-350"/><use xlink:href="#L1_8" x="0" y="-350"/><use xlink:href="#L1_8" x="350" y="-350"/><use xlink:href="#L1_8" x="-350" y="0"/><use xlink:href="#L1_8" x="0" y="0"/><use xlink:href="#L1_8" x="350" y="0"/><use xlink:href="#L1_8" x="-350" y="350"/><use xlink:href="#L1_8" x="0" y="350"/><use xlink:href="#L1_8" x="350" y="350"/></pattern><rect x="0" y="0" width="100%" height="100%" fill="url(#pattern_L1_8)"/></g><g fi:class="KUsePattern"><pattern id="pattern_L1_9" width="350" height="350" patternUnits="userSpaceOnUse"><use xlink:href="#L1_9" x="-350" y="-350"/><use xlink:href="#L1_9" x="0" y="-350"/><use xlink:href="#L1_9" x="350" y="-350"/><use xlink:href="#L1_9" x="-350" y="0"/><use xlink:href="#L1_9" x="0" y="0"/><use xlink:href="#L1_9" x="350" y="0"/><use xlink:href="#L1_9" x="-350" y="350"/><use xlink:href="#L1_9" x="0" y="350"/><use xlink:href="#L1_9" x="350" y="350"/></pattern><rect x="0" y="0" width="100%" height="100%" fill="url(#pattern_L1_9)"/></g><g fi:class="KUsePattern"><pattern id="pattern_L1_10" width="350" height="350" patternUnits="userSpaceOnUse"><use xlink:href="#L1_10" x="-350" y="-350"/><use xlink:href="#L1_10" x="0" y="-350"/><use xlink:href="#L1_10" x="350" y="-350"/><use xlink:href="#L1_10" x="-350" y="0"/><use xlink:href="#L1_10" x="0" y="0"/><use xlink:href="#L1_10" x="350" y="0"/><use xlink:href="#L1_10" x="-350" y="350"/><use xlink:href="#L1_10" x="0" y="350"/><use xlink:href="#L1_10" x="350" y="350"/></pattern><rect x="0" y="0" width="100%" height="100%" fill="url(#pattern_L1_10)"/></g><g fi:class="KUsePattern"><pattern id="pattern_L1_11" width="350" height="350" patternUnits="userSpaceOnUse"><use xlink:href="#L1_11" x="-350" y="-350"/><use xlink:href="#L1_11" x="0" y="-350"/><use xlink:href="#L1_11" x="350" y="-350"/><use xlink:href="#L1_11" x="-350" y="0"/><use xlink:href="#L1_11" x="0" y="0"/><use xlink:href="#L1_11" x="350" y="0"/><use xlink:href="#L1_11" x="-350" y="350"/><use xlink:href="#L1_11" x="0" y="350"/><use xlink:href="#L1_11" x="350" y="350"/></pattern><rect x="0" y="0" width="100%" height="100%" fill="url(#pattern_L1_11)"/></g><g fi:class="KUsePattern"><pattern id="pattern_L1_12" width="350" height="350" patternUnits="userSpaceOnUse"><use xlink:href="#L1_12" x="-350" y="-350"/><use xlink:href="#L1_12" x="0" y="-350"/><use xlink:href="#L1_12" x="350" y="-350"/><use xlink:href="#L1_12" x="-350" y="0"/><use xlink:href="#L1_12" x="0" y="0"/><use xlink:href="#L1_12" x="350" y="0"/><use xlink:href="#L1_12" x="-350" y="350"/><use xlink:href="#L1_12" x="0" y="350"/><use xlink:href="#L1_12" x="350" y="350"/></pattern><rect x="0" y="0" width="100%" height="100%" fill="url(#pattern_L1_12)"/></g></svg>